<?xml version="1.0" encoding="UTF-8"?>
<svg width="600" height="400" viewBox="0 0 600 400" fill="none" xmlns="http://www.w3.org/2000/svg">
  <!-- Abstract Tech Background -->
  <path d="M300 50C411.046 50 500 138.954 500 250C500 361.046 411.046 450 300 450" stroke="#0051FF" stroke-width="2" stroke-dasharray="4 4"/>
  <circle cx="300" cy="200" r="150" stroke="#00A3FF" stroke-width="2" fill="none"/>
  
  <!-- Floating Elements -->
  <rect x="100" y="100" width="60" height="60" rx="8" fill="#FF6B00" opacity="0.1"/>
  <rect x="450" y="150" width="40" height="40" rx="8" fill="#0051FF" opacity="0.1"/>
  <rect x="200" y="300" width="50" height="50" rx="8" fill="#00A3FF" opacity="0.1"/>
  
  <!-- Code Elements -->
  <rect x="250" y="120" width="200" height="20" rx="4" fill="#0051FF" opacity="0.2"/>
  <rect x="250" y="150" width="150" height="20" rx="4" fill="#00A3FF" opacity="0.2"/>
  <rect x="250" y="180" width="180" height="20" rx="4" fill="#FF6B00" opacity="0.2"/>
  
  <!-- Connected Dots -->
  <circle cx="150" cy="200" r="4" fill="#0051FF"/>
  <circle cx="450" cy="200" r="4" fill="#0051FF"/>
  <path d="M150 200H450" stroke="#0051FF" stroke-width="1" stroke-dasharray="4 4"/>
  
  <!-- Abstract Shapes -->
  <path d="M300 100C350 100 390 140 390 190C390 240 350 280 300 280" stroke="#FF6B00" stroke-width="2" fill="none"/>
  <path d="M300 280C250 280 210 240 210 190C210 140 250 100 300 100" stroke="#00A3FF" stroke-width="2" fill="none"/>
</svg> 