<svg width="100" height="24" viewBox="0 0 100 24" fill="none" xmlns="http://www.w3.org/2000/svg">
  <path d="M12.5 24C19.4036 24 25 18.6274 25 12C25 5.37258 19.4036 0 12.5 0C5.59644 0 0 5.37258 0 12C0 18.6274 5.59644 24 12.5 24Z" fill="#676879"/>
  <path d="M35.5 18V6H38.5V18H35.5ZM42.5 18V6H45.5L51.5 13.5V6H54.5V18H51.5L45.5 10.5V18H42.5ZM65.5 18L64 15H58L56.5 18H53.5L59.5 6H62.5L68.5 18H65.5ZM61 9L59 13H63L61 9ZM71.5 18V6H74.5V15.5H81.5V18H71.5ZM84.5 18V6H87.5V15.5H94.5V18H84.5Z" fill="white"/>
</svg> 