<?xml version="1.0" encoding="UTF-8"?>
<svg width="48" height="48" viewBox="0 0 48 48" fill="none" xmlns="http://www.w3.org/2000/svg">
  <path d="M24 42C23.3905 42 22.8095 41.8571 22.2857 41.5714L16.7619 38.2857C15.9524 37.8571 16.2857 37.7143 16.5238 37.619C17.7143 37.1905 17.9524 37.0952 19.0952 36.4286C19.1905 36.381 19.3333 36.4048 19.4524 36.4762L23.7143 39C23.8571 39.0952 24.0952 39.0952 24.2143 39L41.1905 29.4762C41.3333 29.381 41.4286 29.2381 41.4286 29.0714V9.97619C41.4286 9.80952 41.3333 9.66667 41.1905 9.57143L24.2143 0.0714286C24.0714 -0.0238095 23.8571 -0.0238095 23.7143 0.0714286L6.73809 9.57143C6.59524 9.66667 6.5 9.80952 6.5 9.97619V29.0714C6.5 29.2381 6.59524 29.381 6.73809 29.4762L11.4762 32.1905C13.7619 33.3333 15.1905 32.0952 15.1905 30.8571V11.4286C15.1905 11.1905 15.381 11 15.619 11H18.0952C18.3333 11 18.5238 11.1905 18.5238 11.4286V30.8571C18.5238 34.0952 16.8095 35.8571 13.7143 35.8571C12.619 35.8571 11.7619 35.8571 9.83333 34.9048L5.2619 32.2857C4.21428 31.7143 3.57142 30.619 3.57142 29.4286V9.97619C3.57142 8.78571 4.21428 7.69048 5.2619 7.11905L22.2857 -2.38419e-07C23.3095 -0.571429 24.619 -0.571429 25.6429 -2.38419e-07L42.619 7.11905C43.6667 7.69048 44.3095 8.78571 44.3095 9.97619V29.4286C44.3095 30.619 43.6667 31.7143 42.619 32.2857L25.6429 41.5714C25.119 41.8571 24.5381 42 24 42ZM29.7143 29.2857C22.0952 29.2857 20.4286 25.9524 20.4286 23.1429C20.4286 22.9048 20.619 22.7143 20.8571 22.7143H23.381C23.5952 22.7143 23.7619 22.8571 23.7619 23.0714C24.1905 25.0952 25.1905 26.119 29.7619 26.119C33.4286 26.119 34.9524 25.3571 34.9524 23.7143C34.9524 22.7619 34.5714 22.0952 28.8095 21.5238C24.0476 21.0476 21.0952 20.0476 21.0952 16.5714C21.0952 13.381 23.7619 11.5714 29.0952 11.5714C35.0476 11.5714 37.5238 13.2381 37.8571 16.9524C37.8571 17.0714 37.8095 17.1905 37.7143 17.2857C37.619 17.381 37.5 17.4286 37.381 17.4286H34.8571C34.6667 17.4286 34.4762 17.2857 34.4286 17.0952C33.8571 15.1905 32.4762 14.7143 29.0952 14.7143C25.2857 14.7143 24.7143 15.8095 24.7143 16.4762C24.7143 17.2857 25.381 17.5714 30.8095 18.2857C36.1905 19 38.5714 19.9524 38.5714 23.381C38.5714 26.8095 35.7143 29.2857 29.7143 29.2857Z" fill="#539E43"/>
</svg> 