<?xml version="1.0" encoding="UTF-8"?>
<svg width="48" height="48" viewBox="0 0 48 48" fill="none" xmlns="http://www.w3.org/2000/svg">
  <path d="M24 28.5C26.4853 28.5 28.5 26.4853 28.5 24C28.5 21.5147 26.4853 19.5 24 19.5C21.5147 19.5 19.5 21.5147 19.5 24C19.5 26.4853 21.5147 28.5 24 28.5Z" fill="#61DAFB"/>
  <path d="M24 31.5C33.1127 31.5 40.5 28.0899 40.5 24C40.5 19.9101 33.1127 16.5 24 16.5C14.8873 16.5 7.5 19.9101 7.5 24C7.5 28.0899 14.8873 31.5 24 31.5Z" stroke="#61DAFB" stroke-width="2"/>
  <path d="M19.5 27.75C24.0563 35.4772 30.1873 40.5 33.75 40.5C37.3127 40.5 43.4437 35.4772 48 27.75C43.4437 20.0228 37.3127 15 33.75 15C30.1873 15 24.0563 20.0228 19.5 27.75Z" stroke="#61DAFB" stroke-width="2"/>
  <path d="M48 20.25C43.4437 12.5228 37.3127 7.5 33.75 7.5C30.1873 7.5 24.0563 12.5228 19.5 20.25C24.0563 27.9772 30.1873 33 33.75 33C37.3127 33 43.4437 27.9772 48 20.25Z" stroke="#61DAFB" stroke-width="2"/>
</svg> 